<?xml version="1.0" standalone="no"?><!DOCTYPE svg PUBLIC "-//W3C//DTD SVG 1.1//EN" "http://www.w3.org/Graphics/SVG/1.1/DTD/svg11.dtd"><svg class="icon" width="200px" height="200.00px" viewBox="0 0 1024 1024" version="1.1" xmlns="http://www.w3.org/2000/svg"><path d="M127.93 155.9m36.5 0l619.24 0q36.5 0 36.5 36.5l0 0q0 36.5-36.5 36.5l-619.24 0q-36.5 0-36.5-36.5l0 0q0-36.5 36.5-36.5Z" fill="#474747" /><path d="M302.78 315.7m36.5 0l520.29 0q36.5 0 36.5 36.5l0 0q0 36.5-36.5 36.5l-520.29 0q-36.5 0-36.5-36.5l0 0q0-36.5 36.5-36.5Z" fill="#474747" /><path d="M175.77 475.5m36.5 0l402.95 0q36.5 0 36.5 36.5l0 0q0 36.5-36.5 36.5l-402.95 0q-36.5 0-36.5-36.5l0 0q0-36.5 36.5-36.5Z" fill="#4F95FC" /><path d="M255.95 635.3m36.5 0l237.92 0q36.5 0 36.5 36.5l0 0q0 36.5-36.5 36.5l-237.92 0q-36.5 0-36.5-36.5l0 0q0-36.5 36.5-36.5Z" fill="#474747" /><path d="M383.98 795.1m36.5 0l109.9 0q36.5 0 36.5 36.5l0 0q0 36.5-36.5 36.5l-109.9 0q-36.5 0-36.5-36.5l0 0q0-36.5 36.5-36.5Z" fill="#474747" /></svg>