<?xml version="1.0" standalone="no"?><!DOCTYPE svg PUBLIC "-//W3C//DTD SVG 1.1//EN" "http://www.w3.org/Graphics/SVG/1.1/DTD/svg11.dtd"><svg class="icon" width="200px" height="200.00px" viewBox="0 0 1024 1024" version="1.1" xmlns="http://www.w3.org/2000/svg"><path d="M455.95 906.51c-100.27 0-195.85-37.67-269.13-106.08a41.855 41.855 0 0 1-12.04-40.71 41.94 41.94 0 0 1 29.83-30.33C344.8 691.86 442.7 564.17 442.7 418.87c0-83.55-31.91-162.7-89.86-222.89a41.923 41.923 0 0 1-9.87-41.37c4.47-14.53 16.48-25.5 31.34-28.63 28.03-5.9 56.83-8.76 85.62-8.47 105.68 1.05 204.44 43.04 278.06 118.22C811.6 310.9 851.53 410.5 850.43 516.2c-1.09 104.5-42.61 202.57-116.91 276.14-74.35 73.63-172.93 114.17-277.58 114.17zM279.16 780.5c52.14 34.41 113.31 52.95 176.79 52.95 175.41 0 319.6-142.66 321.43-318.02 0.9-86.18-31.63-167.36-91.58-228.58-59.96-61.23-140.43-95.42-226.59-96.28-5.34-0.05-10.67 0.03-15.99 0.23 47.11 66.28 72.55 145.42 72.55 228.06 0 158.39-94.82 299.74-236.61 361.63z" fill="#474747" /></svg>