<?xml version="1.0" standalone="no"?><!DOCTYPE svg PUBLIC "-//W3C//DTD SVG 1.1//EN" "http://www.w3.org/Graphics/SVG/1.1/DTD/svg11.dtd"><svg class="icon" width="200px" height="200.00px" viewBox="0 0 1024 1024" version="1.1" xmlns="http://www.w3.org/2000/svg"><path d="M240.81 572.5c-32.13-0.82-62.42-13.89-85.29-36.8-22.86-22.91-35.88-53.22-36.64-85.35-0.81-34.03 11.83-66.17 35.59-90.49 17.91-18.34 40.39-30.46 64.93-35.33 14.04-96.91 98.18-171.57 199.55-171.57 111.17 0 201.61 89.79 201.61 200.17H547.5c0-70.09-57.66-127.1-128.54-127.1s-128.54 57.02-128.54 127.1c0 11.52-4.75 22.64-13.04 30.56-8.27 7.89-19.58 12.11-30.99 11.56-0.78-0.04-1.56-0.06-2.32-0.06-14.16 0-27.41 5.58-37.31 15.72-9.89 10.13-15.15 23.52-14.82 37.71 0.65 27.34 23.41 50.14 50.74 50.84l-1.86 73.04z m-23.46-219.35z" fill="#4F95FC" /><path d="M753.83 871.04H295l-23.62-0.1c-1.96 0.07-3.77 0.1-5.49 0.1-91.16 0-165.32-74.16-165.32-165.32 0-69.24 42.78-130.62 107.13-154.77 0.03-0.63 0.07-1.25 0.11-1.87 2-29.05 14.69-56.29 35.72-76.7 21.04-20.41 48.64-32.27 77.74-33.39 18.48-0.72 36.72 2.9 53.31 10.38 17.04-31.7 41.32-58.95 71.26-79.77 38.52-26.78 83.76-40.94 130.83-40.94 118.98 0 217.1 91.03 228.36 207.11 69.81 22.73 118.4 88.15 118.4 163.39 0 45.38-14.8 87.57-41.68 118.8-28.81 33.48-69.74 52.31-115.25 53.03h-0.5l-12.18 0.03z m-458.61-73.06h458.53l11.83-0.03c58.26-1.05 84.79-51.91 84.79-98.78s-34.03-88.63-80.91-97.19c-21.11-3.85-36.43-22.28-36.41-43.83 0-86.27-70.15-156.42-156.37-156.42-64.86 0-122.05 39.03-145.68 99.43-5.69 14.54-18.09 25.64-33.18 29.7-15.13 4.07-31.49 0.68-43.76-9.08-5.98-4.75-16.02-10.31-29.97-9.78-22.77 0.88-41.82 19.37-43.39 42.09-0.08 1.1-0.11 2.21-0.11 3.3 0.06 27.64-17.51 52.04-43.73 60.73-37.82 12.52-63.23 47.73-63.23 87.6 0 50.87 41.38 92.25 92.25 92.25 1.02 0 2.18-0.02 3.53-0.08l0.77-0.03 25.04 0.11zM806.1 558.06z" fill="#474747" /></svg>