<?xml version="1.0" standalone="no"?><!DOCTYPE svg PUBLIC "-//W3C//DTD SVG 1.1//EN" "http://www.w3.org/Graphics/SVG/1.1/DTD/svg11.dtd"><svg class="icon" width="200px" height="200.00px" viewBox="0 0 1024 1024" version="1.1" xmlns="http://www.w3.org/2000/svg"><path d="M310.88 583c-57.25-37.6-91.43-100.89-91.43-169.3 0-111.62 90.81-202.42 202.42-202.42s202.42 90.81 202.42 202.42h-73.06c0-71.33-58.03-129.36-129.36-129.36S292.51 342.37 292.51 413.7c0 43.73 21.86 84.19 58.47 108.23L310.87 583zM498.37 202.6c-13.76-6.3-19.8-22.56-13.5-36.32l26.03-56.85c6.3-13.76 22.56-19.8 36.32-13.5 13.76 6.3 19.8 22.56 13.5 36.32l-26.03 56.85c-6.3 13.76-22.56 19.8-36.32 13.51zM327.79 203.07c-14.18 5.27-29.96-1.95-35.23-16.13l-21.79-58.61c-5.27-14.18 1.95-29.96 16.13-35.23 14.18-5.27 29.96 1.95 35.23 16.13l21.79 58.61c5.27 14.18-1.95 29.96-16.13 35.23zM207.51 324.03c-6.3 13.76-22.56 19.8-36.32 13.5l-56.85-26.03c-13.76-6.3-19.8-22.56-13.5-36.32 6.3-13.76 22.56-19.8 36.32-13.5l56.85 26.03c13.76 6.3 19.8 22.56 13.51 36.32zM207.99 494.6c5.27 14.18-1.95 29.96-16.13 35.23l-58.61 21.79c-14.18 5.27-29.96-1.95-35.23-16.13-5.27-14.18 1.95-29.96 16.13-35.23l58.61-21.79c14.18-5.27 29.96 1.95 35.23 16.13zM619.32 322.88c-5.27-14.18 1.95-29.96 16.13-35.23l58.61-21.79c14.18-5.27 29.96 1.95 35.23 16.13 5.27 14.18-1.95 29.96-16.13 35.23l-58.61 21.79c-14.18 5.27-29.96-1.95-35.23-16.13z" fill="#4F95FC" /><path d="M758.11 932.62H299.28l-23.62-0.1c-1.96 0.07-3.77 0.1-5.49 0.1-91.16 0-165.32-74.16-165.32-165.32 0-69.24 42.78-130.62 107.13-154.77 0.03-0.63 0.07-1.25 0.11-1.87 2-29.05 14.69-56.28 35.72-76.7 21.04-20.41 48.64-32.27 77.74-33.39 18.48-0.72 36.72 2.9 53.31 10.38 17.04-31.7 41.32-58.95 71.26-79.77 38.52-26.78 83.76-40.94 130.83-40.94 118.98 0 217.1 91.03 228.36 207.11 69.81 22.73 118.4 88.15 118.4 163.39 0 45.38-14.8 87.57-41.68 118.8-28.81 33.48-69.74 52.31-115.25 53.03h-0.5l-12.18 0.03zM299.5 859.56h458.53l11.83-0.03c58.26-1.05 84.79-51.91 84.79-98.78s-34.03-88.63-80.91-97.19c-21.11-3.85-36.43-22.28-36.41-43.83 0-86.27-70.15-156.42-156.37-156.42-64.86 0-122.05 39.03-145.68 99.43-5.69 14.54-18.09 25.64-33.18 29.7-15.13 4.07-31.49 0.68-43.76-9.08-5.98-4.75-16.02-10.31-29.97-9.78-22.77 0.88-41.82 19.37-43.39 42.09-0.08 1.1-0.11 2.21-0.11 3.3 0.06 27.64-17.51 52.04-43.73 60.73-37.82 12.52-63.23 47.73-63.23 87.6 0 50.87 41.38 92.25 92.25 92.25 1.02 0 2.18-0.02 3.53-0.08l0.77-0.03 25.04 0.1z m510.88-239.92z" fill="#474747" /></svg>