<?xml version="1.0" standalone="no"?><!DOCTYPE svg PUBLIC "-//W3C//DTD SVG 1.1//EN" "http://www.w3.org/Graphics/SVG/1.1/DTD/svg11.dtd"><svg class="icon" width="200px" height="200.00px" viewBox="0 0 1024 1024" version="1.1" xmlns="http://www.w3.org/2000/svg"><path d="M117.21 185.04m33.95 0l415.62 0q33.95 0 33.95 33.95l0-0.01q0 33.95-33.95 33.95l-415.62 0q-33.95 0-33.95-33.95l0 0.01q0-33.95 33.95-33.95Z" fill="#474747" /><path d="M117.21 479.35m33.95 0l125.06 0q33.95 0 33.95 33.95l0-0.01q0 33.95-33.95 33.95l-125.06 0q-33.95 0-33.95-33.95l0 0.01q0-33.95 33.95-33.95Z" fill="#4F95FC" /><path d="M378.94 479.35m33.95 0l458.66 0q33.95 0 33.95 33.95l0-0.01q0 33.95-33.95 33.95l-458.66 0q-33.95 0-33.95-33.95l0 0.01q0-33.95 33.95-33.95Z" fill="#4F95FC" /><path d="M841.06 396.39H148.32c-18.75 0-33.95-15.2-33.95-33.95s15.2-33.95 33.95-33.95h692.74c12.73 0 24.12-7.35 29.03-18.71 3.56-8.23 5.26-18.37 5.07-30.13-0.37-22.8-15.15-29.75-21.48-31.68-10.68-3.25-25.65-1.62-35.63 12.73-10.71 15.39-31.86 19.19-47.25 8.48s-19.19-31.86-8.48-47.25c12.81-18.42 30.57-31.71 51.36-38.43 19.46-6.3 40.14-6.46 59.8-0.47 19.63 5.98 36.52 17.63 48.84 33.67 13.19 17.17 20.35 38.56 20.73 61.86 0.35 21.46-3.23 41.02-10.63 58.16-15.66 36.25-51.52 59.68-91.36 59.68zM648.81 620.74H151.16c-18.75 0-33.95 15.2-33.95 33.95s15.2 33.95 33.95 33.95h497.65c12.73 0 24.12 7.34 29.03 18.71 3.56 8.23 5.26 18.37 5.07 30.14-0.37 22.8-15.14 29.75-21.48 31.68-10.68 3.26-25.65 1.62-35.63-12.73-10.71-15.39-31.86-19.19-47.25-8.48s-19.19 31.86-8.48 47.25c12.81 18.42 30.57 31.71 51.36 38.43 19.46 6.3 40.14 6.46 59.8 0.47 19.63-5.98 36.52-17.63 48.84-33.67 13.18-17.17 20.35-38.56 20.73-61.86 0.35-21.46-3.23-41.03-10.63-58.16-15.66-36.25-51.52-59.68-91.35-59.68z" fill="#474747" /></svg>