<?xml version="1.0" standalone="no"?><!DOCTYPE svg PUBLIC "-//W3C//DTD SVG 1.1//EN" "http://www.w3.org/Graphics/SVG/1.1/DTD/svg11.dtd"><svg class="icon" width="200px" height="200.00px" viewBox="0 0 1024 1024" version="1.1" xmlns="http://www.w3.org/2000/svg"><path d="M815.26 248.24H208.74c-20.18 0-36.53-16.36-36.53-36.53 0-20.18 16.36-36.53 36.53-36.53h606.52c20.18 0 36.53 16.36 36.53 36.53 0 20.18-16.36 36.53-36.53 36.53zM815.26 390.85H208.74c-20.18 0-36.53-16.36-36.53-36.53 0-20.18 16.36-36.53 36.53-36.53h606.52c20.18 0 36.53 16.36 36.53 36.53 0 20.18-16.36 36.53-36.53 36.53zM815.26 533.46H208.74c-20.18 0-36.53-16.36-36.53-36.53 0-20.18 16.36-36.53 36.53-36.53h606.52c20.18 0 36.53 16.36 36.53 36.53 0 20.18-16.36 36.53-36.53 36.53z" fill="#474747" /><path d="M227.820578 634.788434m-5.853046 36.058047a36.53 36.53 0 1 0 11.706093-72.116094 36.53 36.53 0 1 0-11.706093 72.116094Z" fill="#4F95FC" /><path d="M294.75 722.07m-36.53 0a36.53 36.53 0 1 0 73.06 0 36.53 36.53 0 1 0-73.06 0Z" fill="#4F95FC" /><path d="M435.9 722.07m-36.53 0a36.53 36.53 0 1 0 73.06 0 36.53 36.53 0 1 0-73.06 0Z" fill="#4F95FC" /><path d="M577.06 722.07m-36.53 0a36.53 36.53 0 1 0 73.06 0 36.53 36.53 0 1 0-73.06 0Z" fill="#4F95FC" /><path d="M718.21 722.07m-36.53 0a36.53 36.53 0 1 0 73.06 0 36.53 36.53 0 1 0-73.06 0Z" fill="#4F95FC" /><path d="M227.806465 812.333845m-5.853047 36.058046a36.53 36.53 0 1 0 11.706093-72.116093 36.53 36.53 0 1 0-11.706093 72.116093Z" fill="#4F95FC" /><path d="M369.69 634.76m-36.53 0a36.53 36.53 0 1 0 73.06 0 36.53 36.53 0 1 0-73.06 0Z" fill="#4F95FC" /><path d="M369.69 812.29m-36.53 0a36.53 36.53 0 1 0 73.06 0 36.53 36.53 0 1 0-73.06 0Z" fill="#4F95FC" /><path d="M511.595738 634.794253m-5.853046 36.058047a36.53 36.53 0 1 0 11.706093-72.116094 36.53 36.53 0 1 0-11.706093 72.116094Z" fill="#4F95FC" /><path d="M511.582612 812.338824m-5.853047 36.058047a36.53 36.53 0 1 0 11.706094-72.116094 36.53 36.53 0 1 0-11.706094 72.116094Z" fill="#4F95FC" /><path d="M653.45 634.76m-36.53 0a36.53 36.53 0 1 0 73.06 0 36.53 36.53 0 1 0-73.06 0Z" fill="#4F95FC" /><path d="M653.45 812.29m-36.53 0a36.53 36.53 0 1 0 73.06 0 36.53 36.53 0 1 0-73.06 0Z" fill="#4F95FC" /><path d="M795.34 634.76m-36.53 0a36.53 36.53 0 1 0 73.06 0 36.53 36.53 0 1 0-73.06 0Z" fill="#4F95FC" /><path d="M795.34 812.29m-36.53 0a36.53 36.53 0 1 0 73.06 0 36.53 36.53 0 1 0-73.06 0Z" fill="#4F95FC" /></svg>