<?xml version="1.0" standalone="no"?><!DOCTYPE svg PUBLIC "-//W3C//DTD SVG 1.1//EN" "http://www.w3.org/Graphics/SVG/1.1/DTD/svg11.dtd"><svg class="icon" width="200px" height="200.00px" viewBox="0 0 1024 1024" version="1.1" xmlns="http://www.w3.org/2000/svg"><path d="M238.98 623.61c-24.96-8.58-48.35-20.73-69.54-36.09-32.34-23.47-59.4-54.61-78.25-90.06a39.91 39.91 0 0 1 1.77-40.47 39.95 39.95 0 0 1 36.3-18.1c86.45 6.03 166.5-47.08 194.71-129.12 16.22-47.18 13.56-98.07-7.47-143.3-6.12-13.17-4.62-28.64 3.93-40.37a39.94 39.94 0 0 1 37.17-16.11c19.09 2.37 38.01 6.85 56.22 13.31 60.3 21.4 110.77 63.7 142.12 119.1 31.03 54.83 41.49 119.04 29.46 180.79l-71.71-13.97c17.33-88.99-28.91-175.78-110.89-211.76 8.69 45 5.52 91.72-9.72 136.05-31.76 92.37-111.15 158.16-204.1 174.79 7.25 7.33 15.08 14.06 23.39 20.08 15.32 11.12 32.28 19.91 50.39 26.14l-23.75 69.09z" fill="#4F95FC" /><path d="M767.88 914.33H309.06l-23.62-0.1c-1.96 0.07-3.77 0.1-5.49 0.1-91.16 0-165.32-74.16-165.32-165.32 0-69.24 42.78-130.62 107.13-154.77 0.03-0.63 0.07-1.25 0.11-1.87 2-29.05 14.69-56.29 35.72-76.7 21.04-20.41 48.64-32.27 77.74-33.39 18.48-0.72 36.72 2.9 53.31 10.38 17.04-31.7 41.32-58.95 71.26-79.77 38.52-26.78 83.76-40.94 130.83-40.94 118.98 0 217.1 91.03 228.36 207.11 69.81 22.73 118.4 88.15 118.4 163.39 0 45.38-14.8 87.57-41.68 118.8-28.81 33.48-69.74 52.31-115.25 53.03h-0.5l-12.18 0.03z m-458.61-73.06H767.8l11.83-0.03c58.26-1.05 84.79-51.91 84.79-98.78s-34.03-88.63-80.91-97.19c-21.11-3.85-36.43-22.28-36.41-43.83 0-86.27-70.15-156.42-156.37-156.42-64.86 0-122.05 39.03-145.68 99.43-5.69 14.54-18.09 25.64-33.18 29.7-15.13 4.07-31.49 0.68-43.76-9.08-5.98-4.75-16.02-10.31-29.97-9.78-22.77 0.88-41.82 19.37-43.39 42.09-0.08 1.1-0.11 2.21-0.11 3.3 0.06 27.64-17.51 52.04-43.73 60.73-37.82 12.52-63.23 47.73-63.23 87.6 0 50.87 41.38 92.25 92.25 92.25 1.02 0 2.18-0.02 3.53-0.08l0.77-0.03 25.04 0.11z m510.88-239.92z" fill="#474747" /></svg>