<?xml version="1.0" standalone="no"?><!DOCTYPE svg PUBLIC "-//W3C//DTD SVG 1.1//EN" "http://www.w3.org/Graphics/SVG/1.1/DTD/svg11.dtd"><svg class="icon" width="64px" height="64.00px" viewBox="0 0 1024 1024" version="1.1" xmlns="http://www.w3.org/2000/svg"><path fill="#474747" d="M886.3 474.5c-38-38-86.6-61.7-139.1-68.4-3.6-67.6-31.2-130.7-78.8-179-51.2-52.1-119.4-80.8-192-80.8s-140.8 28.7-192 80.8c-51 51.9-79.2 120.8-79.2 194.1 0 1.9 0 3.8 0.1 5.8-36.9 17.4-68.7 43.8-92.8 77.4-29.4 40.9-44.9 89.3-44.9 139.8 0 64.1 25 124.4 70.3 169.8 45.3 45.3 105.6 70.3 169.8 70.3h408.8c64.1 0 124.4-25 169.8-70.3 45.3-45.3 70.3-105.6 70.3-169.8s-25-124.3-70.3-169.7zM716.5 794.4H307.7c-82.8 0-150.1-67.3-150.1-150.1 0-63.3 40-120.1 99.7-141.4 25.8-9.2 41.8-34.7 39-62-0.7-6.5-1-13-1-19.6 0-102 81.3-184.9 181.1-184.9s181.1 83 181.1 184.9c0 3.4-0.1 6.9-0.3 10.3-0.9 16.2 5 32.3 16.2 44.1 11.1 11.8 26.8 18.5 43 18.5 82.8 0 150.1 67.3 150.1 150.1s-67.2 150.1-150 150.1zM412.9 667.8c-11.4 12.4-24.5 18.7-38.8 18.7-29.3 0-46.7-24.3-46.7-65 0-37.7 19.5-64.1 47.3-64.1 12.5 0 22.8 4.7 35.5 16.1l3.9 3.5 33.9-41.6-3.1-3.2c-11.2-11.4-35.3-30.5-71.1-30.5-30 0-57.6 11.4-77.8 32-21.8 22.2-33.3 53.2-33.3 89.6 0 36.8 11.2 67.5 32.4 88.9 19.4 19.6 46.8 30.3 76.9 30.3 30.5 0 56.9-12 76.4-34.6l2.8-3.2-34.5-41.1-3.8 4.2zM556.2 501.8c-31.7 0-58.5 10.8-77.4 31.4-19.3 21-29.5 51.4-29.5 87.8 0 73.9 42 121.6 106.9 121.6 65 0 106.9-47.7 106.9-121.6 0-36.4-10.2-66.7-29.5-87.7-18.9-20.6-45.7-31.5-77.4-31.5z m0 184.8c-26.1 0-42.2-25.1-42.2-65.6 0-39.7 15.8-63.5 42.2-63.5 26.6 0 42.5 23.7 42.5 63.5 0.1 40.4-16.2 65.6-42.5 65.6zM731.2 706.2c13.7-15.2 25.9-31.9 25.9-48.4 0-23.5-17.1-40-41.5-40-16.2 0-27.9 5.4-40.5 18.7l-3.4 3.6 21.5 21.3 3.5-3.5c5.1-5.1 9.8-9.3 15.3-9.3 4.1 0 9.5 1.1 9.5 10.7 0 13.3-20.8 32.8-44.9 55.2L675 716v22.4h87.1V706h-25.5c-1.6 0-3.5 0.1-5.4 0.2z" /></svg>