<?xml version="1.0" standalone="no"?><!DOCTYPE svg PUBLIC "-//W3C//DTD SVG 1.1//EN" "http://www.w3.org/Graphics/SVG/1.1/DTD/svg11.dtd"><svg class="icon" width="200px" height="200.00px" viewBox="0 0 1024 1024" version="1.1" xmlns="http://www.w3.org/2000/svg"><path d="M719.3 657.2c-21.2-7.5-44.8 1.9-55 22-55 109.2-173.7 180.2-307.1 180.2-34.2 0-67.5-4.6-99.5-13.7-22-6.2-45.1 4.8-53.8 25.9l-0.3 0.7c-10.1 24.7 3.6 52.6 29.3 59.9 40.1 11.4 81.7 17.2 124.3 17.2 91.7 0 179.2-26.8 253-77.4 35.7-24.5 67-53.9 93.2-87.4 15.9-20.4 29.7-42.1 41.2-64.8 12.3-24.1 0.4-53.6-25.3-62.6zM898 310c-35.1-39.8-81.4-67.7-132.5-80.1-44.4-91.8-141.9-151.7-250.7-151.7-60 0-117.1 17.9-165 51.7-39.6 28-70.8 66-89.7 108.9-51.3 15.3-97.4 44.5-131.9 83.9-41.1 47-63.8 106.5-63.8 167.6 0 36 7.6 70.9 22.5 103.7 14.3 31.5 34.7 59.7 60.6 83.8 52.7 49.1 122.6 76.1 196.7 76.1 53.4 0 104.9-14.1 149.2-40.5 24.4-14.5 29.5-47.6 10.6-68.7-14.3-16-37.9-19.8-56.4-8.8-30.5 18.2-66.2 28-103.4 28-104.7 0-189.8-77.9-189.8-173.6 0-80.7 62.4-151.9 148.3-169.4 16-3.3 28.9-14.9 33.9-30.4 22.9-71.9 96.2-122.1 178.1-122.1 80.3 0 151.2 46.9 176.3 116.6 5.7 15.7 19.6 27 36.2 29.3 82.6 11.4 144.9 82.6 144.9 165.6 0 40.1-14.1 78-39.6 107.8-13.7 16.1-14 39.6-1.1 56.3 17.5 22.7 51.5 23.4 70 1.5 13.1-15.4 24.3-32.4 33.4-50.3 18.1-36 27.3-74.8 27.3-115.3 0.1-62.7-22.7-123-64.1-169.9z" /></svg>