<?xml version="1.0" standalone="no"?><!DOCTYPE svg PUBLIC "-//W3C//DTD SVG 1.1//EN" "http://www.w3.org/Graphics/SVG/1.1/DTD/svg11.dtd"><svg class="icon" width="200px" height="200.00px" viewBox="0 0 1024 1024" version="1.1" xmlns="http://www.w3.org/2000/svg"><path d="M333.4 600.7c70.7 0 137.1-27.5 187.1-77.5S598 406.8 598 336.1 570.5 199 520.5 149 404.1 71.5 333.4 71.5 196.3 99 146.3 149 68.8 265.4 68.8 336.1s27.5 137.1 77.5 187.1 116.4 77.5 187.1 77.5zM210 212.8c34-34 78.7-51 123.4-51s89.4 17 123.4 51c68.1 68.1 68.1 178.8 0 246.8-68.1 68.1-178.8 68.1-246.8 0-68.1-68-68.1-178.8 0-246.8zM735.8 681.9c-17.6-17.6-46.1-17.6-63.6 0-17.6 17.6-17.6 46.1 0 63.6l163.6 163.6c17.6 17.6 46.1 17.6 63.6 0 17.6-17.6 17.6-46.1 0-63.6L735.8 681.9zM746.4 422.1c-17.6-17.6-46.1-17.6-63.6 0-17.6 17.6-17.6 46.1 0 63.6l163.6 163.6c17.6 17.6 46.1 17.6 63.6 0 17.6-17.6 17.6-46.1 0-63.6L746.4 422.1zM476 692.5c-17.6-17.6-46.1-17.6-63.6 0-17.6 17.6-17.6 46.1 0 63.6L576 919.7c17.6 17.6 46.1 17.6 63.6 0 17.6-17.6 17.6-46.1 0-63.6L476 692.5zM854.9 387.4c17.6 17.6 46.1 17.6 63.6 0 17.6-17.6 17.6-46.1 0-63.6L755 160.1c-17.6-17.6-46.1-17.6-63.6 0-17.6 17.6-17.6 46.1 0 63.6l163.5 163.7zM214 701c-17.6-17.6-46.1-17.6-63.6 0-17.6 17.6-17.6 46.1 0 63.6L314 928.3c17.6 17.6 46.1 17.6 63.6 0 17.6-17.6 17.6-46.1 0-63.6L214 701zM333.4 336.2m-50 0a50 50 0 1 0 100 0 50 50 0 1 0-100 0Z" /></svg>