<?xml version="1.0" standalone="no"?><!DOCTYPE svg PUBLIC "-//W3C//DTD SVG 1.1//EN" "http://www.w3.org/Graphics/SVG/1.1/DTD/svg11.dtd"><svg class="icon" width="200px" height="200.00px" viewBox="0 0 1024 1024" version="1.1" xmlns="http://www.w3.org/2000/svg"><path d="M895.6 345.2c-29.6-29.6-66.5-51.5-107.2-64-9-2.8-15.7-10.4-17.4-19.6-3.4-18-9-35.5-16.9-52.4-13.1-28.3-31.8-53.6-55.6-75.3-48-43.8-111.6-67.9-179-67.9s-131 24.1-179.1 67.9c-23.8 21.7-42.5 47-55.6 75.3-8.3 17.8-14.1 36.4-17.4 55.4-3.6 20.8-19.4 37.2-39.8 42.4-36.1 9.1-69.3 26.7-96.6 51.7-42.8 39-66.4 91.2-66.4 147 0 54.2 22.4 105.3 63.1 144 26.2 24.9 58.3 42.9 93.4 52.9 28 8 56.1-12.3 57.3-41.4 0.8-20.9-12.9-39.4-33.1-45.2-52.9-15.1-90.7-58.8-90.7-110.3 0-63.9 59-115.9 131.5-115.9 7.4 0 14.8 0.5 22 1.6 45.5 6.8 83 34.2 99.9 70.7 8.3 17.9 27 28.4 46.5 26 30.1-3.8 48-35.7 35.3-63.2a205.14 205.14 0 0 0-45.1-62.9c-25.5-24.3-56.4-42.1-90.5-52.3-0.1-2.3-0.2-4.6-0.2-6.9 0-80.9 74.2-146.8 165.4-146.8s165.4 65.8 165.4 146.8c0 2.9-0.1 6-0.3 9.3l-1.4 19.3c-1 13.7 9.2 25.6 22.9 26.9l19.3 1.8c84.5 7.7 148.3 70.5 148.3 146 0 64.8-48.7 121.2-115.9 140.1-20.6 5.8-34.3 25.3-32.7 46.6 2.1 28.3 29.5 47.7 56.8 40.1C824.3 721.1 863 699 894 668.5c44.8-44.1 69.5-101.8 69.5-162.4 0-59.9-24.1-117-67.9-160.9zM614 588.1c-24.9 0-45 20.1-45 45v280.5c0 24.9 20.1 45 45 45s45-20.1 45-45V633.1c0-24.9-20.2-45-45-45zM441.2 588.1c-24.9 0-45 20.1-45 45v35.4c0 24.9 20.1 45 45 45s45-20.1 45-45v-35.4c0-24.9-20.2-45-45-45zM441.2 833.1c-24.9 0-45 20.1-45 45v35.4c0 24.9 20.1 45 45 45s45-20.1 45-45v-35.4c0-24.9-20.2-45-45-45z" /></svg>