<?xml version="1.0" standalone="no"?><!DOCTYPE svg PUBLIC "-//W3C//DTD SVG 1.1//EN" "http://www.w3.org/Graphics/SVG/1.1/DTD/svg11.dtd"><svg class="icon" width="200px" height="200.00px" viewBox="0 0 1024 1024" version="1.1" xmlns="http://www.w3.org/2000/svg"><path d="M432.2 539.3V201.9c0-74.6-60.7-135.2-135.2-135.2s-135.2 60.7-135.2 135.2v337.4c-25.1 18.9-46.3 42.9-62 70.5-20.2 35.4-30.9 75.8-30.9 117 0 62 23.6 120.3 66.5 164.2 43.1 44.2 100.5 68.5 161.7 68.5s118.5-24.3 161.7-68.5c42.9-43.9 66.5-102.3 66.5-164.2 0-41.1-10.7-81.6-30.9-117-15.9-27.5-37.1-51.6-62.2-70.5zM297 879.6c-81.7 0-148.1-68.5-148.1-152.8 0-54.1 28.2-104.7 73.5-132l19.4-11.7V201.9c0-30.5 24.8-55.2 55.2-55.2s55.2 24.8 55.2 55.2v381.2l19.4 11.7c45.4 27.3 73.5 77.9 73.5 132 0 84.2-66.5 152.8-148.1 152.8zM954.1 158.4c0-22.1-17.9-40-40-40H578.3c-22.1 0-40 17.9-40 40s17.9 40 40 40h335.8c22.1 0 40-17.9 40-40zM916.4 318.7H654.3c-22.1 0-40 17.9-40 40s17.9 40 40 40h262.1c22.1 0 40-17.9 40-40s-18-40-40-40zM911.1 519H734.8c-22.1 0-40 17.9-40 40s17.9 40 40 40h176.3c22.1 0 40-17.9 40-40s-18-40-40-40z" /></svg>