<?xml version="1.0" standalone="no"?><!DOCTYPE svg PUBLIC "-//W3C//DTD SVG 1.1//EN" "http://www.w3.org/Graphics/SVG/1.1/DTD/svg11.dtd"><svg class="icon" width="200px" height="200.00px" viewBox="0 0 1024 1024" version="1.1" xmlns="http://www.w3.org/2000/svg"><path d="M64.5 142h82.7v171.8H62.9v90h84.3v216.1H62.9v90h84.3v164.3H69.1v90h168.1V52H64.5zM818.8 222c-4.8-40.6-24.1-78.1-55.3-107.2-35.6-33-82.6-51.2-132.5-51.2s-96.9 18.2-132.5 51.2c-31.3 29.1-50.5 66.6-55.3 107.2-80.5 13.7-141.7 80.6-141.7 160.8 0 90.1 77.3 163.3 172.3 163.3h314.4c95 0 172.3-73.3 172.3-163.3 0-80.2-61.2-147-141.7-160.8z m-30.6 234.1H473.8c-45.4 0-82.3-32.9-82.3-73.3s36.9-73.3 82.3-73.3c16.1 0 31.6-6.7 42.6-18.4s16.7-27.6 15.7-43.6c-0.1-1.7-0.2-3.3-0.2-5 0-49 44.4-88.8 99-88.8s99 39.9 99 88.8c0 1.7-0.1 3.3-0.2 5-1 16 4.7 31.9 15.7 43.6 11 11.7 26.6 18.4 42.6 18.4 45.4 0 82.3 32.9 82.3 73.3s-36.7 73.3-82.1 73.3zM437.5 627.4c-24.9 0-45 20.1-45 45v207.3c0 24.9 20.1 45 45 45s45-20.1 45-45V672.4c0-24.9-20.2-45-45-45zM646.5 627.4c-24.9 0-45 20.1-45 45v86.5c0 24.9 20.1 45 45 45s45-20.1 45-45v-86.5c0-24.9-20.1-45-45-45zM834.6 627.4c-24.9 0-45 20.1-45 45v239.8c0 24.9 20.1 45 45 45s45-20.1 45-45V672.4c0-24.9-20.1-45-45-45z" /></svg>