<?xml version="1.0" standalone="no"?><!DOCTYPE svg PUBLIC "-//W3C//DTD SVG 1.1//EN" "http://www.w3.org/Graphics/SVG/1.1/DTD/svg11.dtd"><svg class="icon" width="200px" height="200.00px" viewBox="0 0 1024 1024" version="1.1" xmlns="http://www.w3.org/2000/svg"><path d="M550.1 128l-37.4-55.6-37.3 55.6c-2.6 3.8-63.7 95.1-125.9 204.9-87.5 154.4-130 261.4-130 327.1 0 78.3 30.5 152 85.9 207.4 55.4 55.4 129.1 85.9 207.4 85.9s152-30.5 207.4-85.9C775.5 812 806 738.3 806 660c0-65.7-42.5-172.6-130-327.1C613.8 223.1 552.7 131.8 550.1 128z m-37.4 735.3c-112.1 0-203.3-91.2-203.3-203.3 0-27.5 15.3-100.8 118-282.2 30.9-54.6 62.1-105.3 85.3-141.9 23.2 36.6 54.3 87.3 85.3 141.9C700.7 559.1 716 632.4 716 660c0 112.1-91.2 203.3-203.3 203.3zM109.5 242.5H244c24.9 0 45-20.1 45-45s-20.1-45-45-45H109.5c-24.9 0-45 20.1-45 45 0 24.8 20.1 45 45 45zM142.6 363.8h-33.1c-24.9 0-45 20.1-45 45s20.1 45 45 45h33.1c24.9 0 45-20.1 45-45 0-24.8-20.2-45-45-45zM126.3 575.2h-16.8c-24.9 0-45 20.1-45 45s20.1 45 45 45h16.8c24.9 0 45-20.1 45-45s-20.1-45-45-45zM908.3 152.5H773.7c-24.9 0-45 20.1-45 45s20.1 45 45 45h134.5c24.9 0 45-20.1 45-45 0.1-24.9-20.1-45-44.9-45zM908.3 363.8h-33.1c-24.9 0-45 20.1-45 45s20.1 45 45 45h33.1c24.9 0 45-20.1 45-45 0-24.8-20.2-45-45-45zM908.3 575.2h-16.8c-24.9 0-45 20.1-45 45s20.1 45 45 45h16.8c24.9 0 45-20.1 45-45s-20.2-45-45-45zM568.6 657.6c-3 6.7-7.5 13.7-14.4 19.6-14.5 12.6-37.4 19-67.2 19.1-21.9 0-40.4 16.3-43.5 38l-0.3 2.1c-3.7 26.2 16.6 49.9 43.1 49.9h0.5c53.6 0 96.7-14.3 128.3-42.8 17.4-15.7 28.8-33.4 36.1-50.1 13.1-29.8-9.5-63-42.1-61.9l-1.8 0.1c-16.7 0.6-31.7 10.7-38.7 26z" /></svg>