<?xml version="1.0" standalone="no"?><!DOCTYPE svg PUBLIC "-//W3C//DTD SVG 1.1//EN" "http://www.w3.org/Graphics/SVG/1.1/DTD/svg11.dtd"><svg class="icon" width="200px" height="200.00px" viewBox="0 0 1024 1024" version="1.1" xmlns="http://www.w3.org/2000/svg"><path d="M685.2 244.8c0-96.3-78.3-174.6-174.6-174.6S336 148.5 336 244.8v296c-46.1 46.5-71.8 109.3-71.2 175.4 0.6 65.7 27 127.3 74.2 173.3 46.4 45.3 107.2 70 171.5 70h3.7c64.9-1 125.7-27 171.3-73.2 45.6-46.3 70.8-107.6 70.8-172.6 0-65.2-25.7-127.1-71.2-173V244.8zM513 869.5h-2.4c-40.8 0-79.3-15.7-108.7-44.5-30-29.2-46.7-68.2-47.1-109.8-0.4-46.5 19.7-90.5 55.3-120.6l15.9-13.5V244.8c0-46.6 37.9-84.6 84.6-84.6 46.6 0 84.6 37.9 84.6 84.6v336.5l15.9 13.5c35.1 29.7 55.3 73.1 55.3 119 0 84.6-68.8 154.5-153.4 155.7zM548.1 657.1V301.3c0-23-16.8-41.7-37.5-41.7s-37.5 18.7-37.5 41.7v355.8c-21.1 12.7-35.3 35.9-35.3 62.4 0 40.2 32.6 72.8 72.8 72.8s72.8-32.6 72.8-72.8c-0.1-26.5-14.2-49.7-35.3-62.4zM212.2 263.3H99.5c-19.3 0-35 15.7-35 35s15.7 35 35 35h112.7c19.3 0 35-15.7 35-35s-15.7-35-35-35zM161.1 440.6H99.5c-19.3 0-35 15.7-35 35s15.7 35 35 35h61.6c19.3 0 35-15.7 35-35s-15.7-35-35-35zM161.1 617.9H99.5c-19.3 0-35 15.7-35 35s15.7 35 35 35h61.6c19.3 0 35-15.7 35-35 0-19.4-15.7-35-35-35zM925.5 263.3H812.8c-19.3 0-35 15.7-35 35s15.7 35 35 35h112.7c19.3 0 35-15.7 35-35s-15.7-35-35-35zM925.5 440.6h-61.6c-19.3 0-35 15.7-35 35s15.7 35 35 35h61.6c19.3 0 35-15.7 35-35s-15.7-35-35-35zM925.5 617.9h-61.6c-19.3 0-35 15.7-35 35s15.7 35 35 35h61.6c19.3 0 35-15.7 35-35 0-19.4-15.7-35-35-35z" /></svg>