<?xml version="1.0" standalone="no"?><!DOCTYPE svg PUBLIC "-//W3C//DTD SVG 1.1//EN" "http://www.w3.org/Graphics/SVG/1.1/DTD/svg11.dtd"><svg class="icon" width="64px" height="64.00px" viewBox="0 0 1024 1024" version="1.1" xmlns="http://www.w3.org/2000/svg"><path fill="#474747" d="M895.7 345c-29.1-29.3-65.4-51-105.3-63.6-10-3.2-17.6-11.5-19.7-21.8-3.4-17.5-9-34.5-16.6-51-13.1-28.3-31.8-53.7-55.6-75.4-48-44-111.6-68.2-179-68.2-67.5 0-131.1 24.2-179.1 68.1-23.8 21.7-42.4 47.1-55.6 75.4-13.5 29.1-20.4 60-20.7 91.8-50.2 4.6-96.8 24.8-133.2 58-42.8 39.1-66.3 91.4-66.3 147.3C64.6 560 87 611.2 127.7 650c26.2 25 58.3 43.1 93.4 53.1 28 8 56.1-12.3 57.3-41.4 0.8-20.9-12.9-39.4-33-45.2-52.9-15.2-90.8-59.1-90.8-110.7 0-64.2 59-116.4 131.5-116.4h0.2c14.7 0 28.8-6.2 38.7-17.2l4.9-5.4c15.8-17.6 24.3-40.5 24.2-64.1v-0.3c0-81.2 74.2-147.3 165.4-147.3s165.4 66.1 165.4 147.3c0 2.9-0.1 6-0.3 9.3-1.7 24.4 16.4 45.7 40.8 48 84.5 7.7 148.3 70.7 148.3 146.5 0 65.1-48.7 121.6-116 140.6-20.6 5.8-34.2 25.3-32.7 46.6 2.1 28.3 29.5 47.7 56.8 40.1 42.6-11.9 81.3-34 112.3-64.5 44.8-44.2 69.5-102 69.5-162.8-0.1-60.1-24.2-117.3-67.9-161.2zM621.2 656.7c-24.9 0-45 20.1-45 45V916c0 24.9 20.1 45 45 45s45-20.1 45-45V701.7c0-24.9-20.2-45-45-45zM444.6 651.3c-24.9 0-45 20.1-45 45v26.1c0 24.9 20.1 45 45 45s45-20.1 45-45v-26.1c0-24.8-20.1-45-45-45zM444.6 844.9c-24.9 0-45 20.1-45 45V916c0 24.9 20.1 45 45 45s45-20.1 45-45v-26.1c0-24.9-20.1-45-45-45zM426.3 577.2V506c0-42.2-24-48.5-38.3-48.5-11.1 0-19.9 3.8-26.7 8.3l0.7-7.4v-41.6h-43.5v160.3H362v-74.3c5-4.7 8.3-6.7 13.4-6.7 4 0 7.4 0 7.4 14v67.1h43.5zM493.7 457.5c-15.2 0-29.4 5.8-40 16.2-11.4 11.3-17.5 26.8-17.5 44.8 0 18.1 6 33.7 17.5 45 10.6 10.5 24.8 16.2 40 16.2 15.1 0 29.3-5.8 39.8-16.2 11.4-11.3 17.5-26.9 17.5-45 0-18-6-33.5-17.5-44.8-10.6-10.4-24.7-16.2-39.8-16.2z m0 85.2c-8.8 0-13.2-8.1-13.2-24.2 0-15.9 4.5-24 13.2-24 10.8 0 13.1 13 13.1 24-0.1 16.1-4.5 24.2-13.1 24.2zM624.6 533.7c-4.8 6.3-8.2 7.5-12.9 7.5-4 0-7.4 0-7.4-14v-67.1h-43.5v71.2c0 42.2 24.1 48.5 38.5 48.5 11.8 0 21.5-3.8 30.7-12.3l1.6 9.6h36.5v-117h-43.5v73.6zM728.5 512c3.9-9.5 10.6-15.1 17.9-15.1 4.2 0 6.9 0.7 10.7 1.6l5.1 1.2 7.2-37.8-3.7-1.6c-4.3-1.9-8.8-2.7-15-2.7-10.1 0-19.9 4.9-27.7 13.6l-1.4-11H685v117h43.5V512z" /></svg>