<?xml version="1.0" standalone="no"?><!DOCTYPE svg PUBLIC "-//W3C//DTD SVG 1.1//EN" "http://www.w3.org/Graphics/SVG/1.1/DTD/svg11.dtd"><svg class="icon" width="64px" height="64.00px" viewBox="0 0 1024 1024" version="1.1" xmlns="http://www.w3.org/2000/svg"><path fill="#474747" d="M913.7 678.9H104.8c-24.9 0-45 20.1-45 45s20.1 45 45 45h808.8c24.9 0 45-20.1 45-45 0.1-24.8-20.1-45-44.9-45zM913.7 836.1H104.8c-24.9 0-45 20.1-45 45s20.1 45 45 45h808.8c24.9 0 45-20.1 45-45 0.1-24.9-20.1-45-44.9-45zM78.2 275.9c17.4 17.7 45.9 18 63.6 0.5l25.3-24.8v323.9c0 24.9 20.1 45 45 45s45-20.1 45-45V163.7c0-21.3-12.4-41-32-49.4-19.8-8.5-42.6-4.1-57.9 11l-88.5 87c-17.7 17.4-17.9 45.9-0.5 63.6zM811.8 620.5c24.9 0 45-20.1 45-45V251.6l25.3 24.8c17.7 17.4 46.2 17.2 63.6-0.5s17.2-46.2-0.5-63.6l-88.5-87c-15.3-15.1-38.1-19.5-57.9-11-19.6 8.4-32 28.1-32 49.4v411.8c0 24.8 20.2 45 45 45zM512 623.5c24.9 0 45-20.1 45-45V107.9c0-24.9-20.1-45-45-45s-45 20.1-45 45v470.5c0 24.9 20.1 45.1 45 45.1z" /></svg>