<?xml version="1.0" standalone="no"?><!DOCTYPE svg PUBLIC "-//W3C//DTD SVG 1.1//EN" "http://www.w3.org/Graphics/SVG/1.1/DTD/svg11.dtd"><svg class="icon" width="64px" height="64.00px" viewBox="0 0 1024 1024" version="1.1" xmlns="http://www.w3.org/2000/svg"><path fill="#474747" d="M187 185.2m-109.7 0a109.7 109.7 0 1 0 219.4 0 109.7 109.7 0 1 0-219.4 0ZM216.7 549.4c86.5 0 172.2-33.5 236.6-97.9 94.4-94.4 122.5-234.8 75.7-356.3-10-25.9-40.6-36.8-64.6-22.9-19.1 11.1-27.4 34.4-19.5 55 34.3 88.9 13.8 191.6-55.2 260.6-69.4 69.4-172.5 89.7-261.6 54.8-20.6-8.1-43.9 0.2-55.1 19.2-14 23.9-3.3 54.6 22.5 64.6 39.1 15.4 80.2 22.9 121.2 22.9zM707.9 633.5c-17.6-17.6-46.1-17.6-63.6 0-17.6 17.6-17.6 46.1 0 63.6l207.3 207.3c17.6 17.6 46.1 17.6 63.6 0 17.6-17.6 17.6-46.1 0-63.6L707.9 633.5zM739.1 373.2c-17.6-17.6-46.1-17.6-63.6 0-17.6 17.6-17.6 46.1 0 63.6l207.3 207.3c17.6 17.6 46.1 17.6 63.6 0 17.6-17.6 17.6-46.1 0-63.6L739.1 373.2zM894.2 364c17.6 17.6 46.1 17.6 63.6 0 17.6-17.6 17.6-46.1 0-63.6L750.5 93c-17.6-17.6-46.1-17.6-63.6 0-17.6 17.6-17.6 46.1 0 63.6L894.2 364zM447.6 664.7c-17.6-17.6-46.1-17.6-63.6 0-17.6 17.6-17.6 46.1 0 63.6l207.3 207.3c17.6 17.6 46.1 17.6 63.6 0 17.6-17.6 17.6-46.1 0-63.6L447.6 664.7zM167.5 676.1c-17.6-17.6-46.1-17.6-63.6 0-17.6 17.6-17.6 46.1 0 63.6L311.2 947c17.6 17.6 46.1 17.6 63.6 0 17.6-17.6 17.6-46.1 0-63.6L167.5 676.1z" /></svg>