<?xml version="1.0" standalone="no"?><!DOCTYPE svg PUBLIC "-//W3C//DTD SVG 1.1//EN" "http://www.w3.org/Graphics/SVG/1.1/DTD/svg11.dtd"><svg class="icon" width="64px" height="64.00px" viewBox="0 0 1024 1024" version="1.1" xmlns="http://www.w3.org/2000/svg"><path fill="#474747" d="M954.6 538.5c-10.9-20.7-35.6-29.5-56.9-20.3-30.4 13.1-77.2 31-131 43.5-83.2 19.3-201.5 29.7-292.7-30.8-119.3-79.1-230.2-69.7-302.2-47.9-34.5 10.5-63.5 24.7-85.2 37.5-24 14.1-29.4 46.8-11.3 68.1 14 16.5 37.7 20.5 56.3 9.6 17.2-10.1 40.8-21.7 68.9-29.9 77.3-22.5 152.8-9.7 224.5 37.8 52.9 35.1 115.6 55.2 186.4 59.8 10.5 0.7 21.2 1 32.1 1 45.7 0 94.5-6 145.3-18 59.3-14 110.1-33.3 143.9-47.9 24-10.3 34.1-39.2 21.9-62.5zM197.885747 224.6519a51.1 51.1 0 1 0 72.265051-72.267574 51.1 51.1 0 1 0-72.265051 72.267574ZM403.447181 396.724796a51.1 51.1 0 1 0 72.265051-72.267575 51.1 51.1 0 1 0-72.265051 72.267575ZM831.155705 217.659374a51.1 51.1 0 1 0 72.265051-72.267575 51.1 51.1 0 1 0-72.265051 72.267575ZM900.6 404.4m-39.9 0a39.9 39.9 0 1 0 79.8 0 39.9 39.9 0 1 0-79.8 0ZM637.4 265m-39.9 0a39.9 39.9 0 1 0 79.8 0 39.9 39.9 0 1 0-79.8 0ZM649.113882 457.642438a65 65 0 1 0 91.922277-91.925486 65 65 0 1 0-91.922277 91.925486ZM152.7 362.9m-72 0a72 72 0 1 0 144 0 72 72 0 1 0-144 0ZM480.2 143.5m-72 0a72 72 0 1 0 144 0 72 72 0 1 0-144 0ZM224.1 728.3c-15.3-10.7-36.7-16.1-63.7-16.1H79.6v225.6h61.8v-71.5h20.2c25.2 0 46.9-6.5 62.8-18.7 17.9-13.8 27.3-34.6 27.3-60.1 0-26.5-9.3-46.4-27.6-59.2zM159 815.6h-17.6v-52.2h16.1c29.7 0 33.8 11.6 33.8 24.2 0.1 18.8-10.5 28-32.3 28zM394 808.8v0.1c-1.9 5.9-3.7 12.2-5.5 18.2-0.7 2.5-1.5 5-2.2 7.6-0.2-0.6-0.3-1.2-0.5-1.7-2.3-8.1-4.7-16.4-7.5-24.3l-35.4-96.5h-64.4v225.6h56.3V859c0-9.7-0.8-21.6-2-33.7l4.1 12.2 30.5 82.1h35.3l30.2-82.1 4.9-14.1c-1.5 14.6-2.2 26.4-2.2 35.6v78.8h57.2V712.2h-64.7L394 808.8zM612.1 885.8c29.1-30.9 57-65.7 57-99.4 0-21.4-7.3-39.7-21.2-52.9-13.7-13-32.5-19.8-54.4-19.8-30.3 0-51.3 9.8-75.1 34.8l-3.4 3.6 35.1 34.7 3.5-3.5c10.2-10.2 20.4-19.4 32.9-19.4 15.1 0 23.1 8.8 23.1 25.4 0 27.9-41 66.1-88.4 110.4l-1.6 1.5v36.7H679v-53.4h-44.7c-6.4 0-14.5 0.5-22.2 1.3zM739.6 868c-20.3 0-35.7 15.8-35.7 36.8 0 21.2 15.3 37.1 35.7 37.1 20 0 35.7-16.3 35.7-37.1 0-21-15.3-36.8-35.7-36.8zM934 810.1c-12.8-11.2-30.2-17.1-50.5-17.1-6.1 0-11.3 0.6-16.6 2.1l2.1-24.2h77.1v-53.1H815.3l-5.9 114.4 27.7 18.1 2.7-1.7c12.3-7.8 17.1-9.9 27.7-9.9 16.6 0 26.5 9.7 26.5 26 0 21.2-15.7 25.7-28.9 25.7-13.7 0-27.5-6.5-40.8-19.2l-4.1-3.9-29.3 40.5 3.1 3c21.1 20.7 47.6 31.2 78.8 31.2 22.2 0 42.7-7.3 57.8-20.7 16.4-14.5 25.1-34.6 25.1-58.1-0.1-22.4-7.5-40.7-21.7-53.1z" /></svg>