<?xml version="1.0" standalone="no"?><!DOCTYPE svg PUBLIC "-//W3C//DTD SVG 1.1//EN" "http://www.w3.org/Graphics/SVG/1.1/DTD/svg11.dtd"><svg class="icon" width="64px" height="64.00px" viewBox="0 0 1024 1024" version="1.1" xmlns="http://www.w3.org/2000/svg"><path fill="#474747" d="M912.9 834.1H112.6c-24.9 0-45 20.1-45 45s20.1 45 45 45h800.3c24.9 0 45-20.1 45-45 0-24.8-20.1-45-45-45zM459.3 746.8c30.5 30.5 79.9 30.5 110.4 0l78.4-78.4c17.6-17.6 17.6-46.1 0-63.6-17.6-17.6-46.1-17.6-63.6 0l-24.4 24.4v-484c0-24.9-20.1-45-45-45s-45 20.1-45 45v485.1l-27.7-27.7c-17.6-17.6-46.1-17.6-63.6 0-17.6 17.6-17.6 46.1 0 63.6l80.5 80.6zM155 706.7c18.5 18.5 46.7 23.5 70.5 12.5 22-10.2 36.1-32.3 36.1-56.6V145.1c0-24.9-20.1-45-45-45s-45 20.1-45 45v451l-26-26c-17.6-17.6-46.1-17.6-63.6 0-17.6 17.6-17.6 46.1 0 63.6l73 73zM798.5 719.2c23.8 11.1 51.9 6.1 70.5-12.5l73.1-73.1c17.6-17.6 17.6-46.1 0-63.6-17.6-17.6-46.1-17.6-63.6 0l-26 26V145c0-24.9-20.1-45-45-45s-45 20.1-45 45v517.5c-0.2 24.4 13.9 46.5 36 56.7z" /></svg>