<?xml version="1.0" standalone="no"?><!DOCTYPE svg PUBLIC "-//W3C//DTD SVG 1.1//EN" "http://www.w3.org/Graphics/SVG/1.1/DTD/svg11.dtd"><svg class="icon" width="200px" height="200.00px" viewBox="0 0 1024 1024" version="1.1" xmlns="http://www.w3.org/2000/svg"><path d="M455.4 561.7m-56.5 0a56.5 56.5 0 1 0 113 0 56.5 56.5 0 1 0-113 0ZM415.4 382v42c0 22.1 17.9 40 40 40s40-17.9 40-40v-42c0-22.1-17.9-40-40-40s-40 17.9-40 40zM356.9 456.9l-36.3-21c-19.1-11-43.6-4.5-54.6 14.6s-4.5 43.6 14.6 54.6l36.3 21c19.1 11 43.6 4.5 54.6-14.6 11.1-19.1 4.6-43.6-14.6-54.6zM370.8 607.9c-11-19.1-35.5-25.7-54.6-14.6l-36.3 21c-19.1 11-25.7 35.5-14.6 54.6 11 19.1 35.5 25.7 54.6 14.6l36.3-21c19.1-11 25.7-35.5 14.6-54.6zM453.9 656.7c-22.1 0-40 17.9-40 40v41.9c0 22.1 17.9 40 40 40s40-17.9 40-40v-41.9c0-22-17.9-40-40-40zM552.4 663.8l36.3 21c19.1 11 43.6 4.5 54.6-14.6s4.5-43.6-14.6-54.6l-36.3-21c-19.1-11-43.6-4.5-54.6 14.6-11.1 19.1-4.5 43.6 14.6 54.6zM538.5 512.8c11 19.1 35.5 25.7 54.6 14.6l36.3-21c19.1-11 25.7-35.5 14.6-54.6-11-19.1-35.5-25.7-54.6-14.6l-36.3 21c-19.1 11-25.6 35.5-14.6 54.6zM765.9 69.9c-104.3 1.4-189.1 86.3-190.6 190.6-1.4 100.3 74 183.6 171.1 194.7-1 5.9-0.7 12.2 1.2 18.3 8.5 28.3 12.8 57.7 12.8 87.8 0 168.2-136.8 305-305 305s-305-136.8-305-305c0-150.8 109.2-276.7 254.4-300.9 20-3.3 34.3-21.2 33.2-41.4l-0.5-10c-1.2-23.9-22.9-41.3-46.5-37.5-84.2 13.8-161.6 54.5-221.4 117.2C99.2 362.5 60.4 459.3 60.4 561.3c0 53.3 10.5 105 31.1 153.8 19.9 47 48.4 89.3 84.6 125.6s78.5 64.7 125.6 84.6c48.7 20.6 100.5 31.1 153.8 31.1s105-10.5 153.8-31.1c47-19.9 89.3-48.4 125.6-84.6 36.3-36.3 64.7-78.5 84.6-125.6 20.6-48.7 31.1-100.5 31.1-153.8 0-39.5-5.7-78.2-17.1-115.4-0.1-0.2-0.1-0.4-0.2-0.6 74.1-26.4 127.6-96.8 128.8-179.5 1.3-108.7-87.4-197.4-196.2-195.9z m-1 306.5c-59.4-1.9-107.5-50.1-109.5-109.5-2.1-65.4 51.6-119.1 117-117 59.4 1.9 107.5 50.1 109.5 109.5 2.1 65.4-51.6 119.1-117 117zM822 249.4h-28.8c-1 0-1.7-0.8-1.7-1.7v-21c0-12.6-10.2-22.8-22.8-22.8h-24.5c-12.6 0-22.8 10.2-22.8 22.8v70c0 12.6 10.2 22.8 22.8 22.8H822c12.6 0 22.8-10.2 22.8-22.8v-24.5c0-12.6-10.2-22.8-22.8-22.8z" /></svg>