<?xml version="1.0" standalone="no"?><!DOCTYPE svg PUBLIC "-//W3C//DTD SVG 1.1//EN" "http://www.w3.org/Graphics/SVG/1.1/DTD/svg11.dtd"><svg class="icon" width="200px" height="200.00px" viewBox="0 0 1024 1024" version="1.1" xmlns="http://www.w3.org/2000/svg"><path d="M809 411.2c-24.4 0-48.4 2.9-71.6 8.5-2.2-5.1-5.4-9.9-9.5-14.1l-60.2-60.2c-17.6-17.6-46.1-17.6-63.6 0-17.6 17.6-17.6 46.1 0 63.6l46.7 46.7c-19.8 12.2-38.3 26.8-55.1 43.7-6.6 6.6-12.7 13.4-18.6 20.4l-7.7-7.7c-17.6-17.6-46.1-17.6-63.6 0-17.6 17.6-17.6 46.1 0 63.6l11.2 11.2c4 4 8.7 7.1 13.6 9.3-13.9 33.2-21.7 68.9-23 105.8l-98.3-98c-17.6-17.6-46.1-17.6-63.6 0-17.6 17.6-17.6 46.1 0 63.6l148.5 148.5c3.9 3.9 8.4 7 13.2 9.1v129.6h149.4c80.6 0 156.3-31.4 213.3-88.3 57-57 88.3-132.7 88.3-213.3v-242H809z m59.5 242.1c0 116.7-94.9 211.6-211.6 211.6h-59.4v-152c0-116.7 94.9-211.6 211.6-211.6h59.4v152zM271.3 273.1m-44.9 0a44.9 44.9 0 1 0 89.8 0 44.9 44.9 0 1 0-89.8 0ZM271.3 480.5c55.4 0 107.5-21.6 146.7-60.8s60.8-91.3 60.8-146.7-21.7-107.4-60.8-146.6-91.3-60.8-146.7-60.8c-55.4 0-107.5 21.6-146.7 60.8s-60.8 91.3-60.8 146.7 21.6 107.5 60.8 146.7 91.3 60.7 146.7 60.7z m-83-290.5c22.9-22.9 53-34.3 83-34.3 30.1 0 60.1 11.4 83 34.3 45.8 45.8 45.8 120.3 0 166.1s-120.3 45.8-166.1 0c-45.7-45.8-45.7-120.3 0.1-166.1zM759.3 305.8c17.6 17.6 46.1 17.6 63.6 0 17.6-17.6 17.6-46.1 0-63.6L674.4 93.7c-17.6-17.6-46.1-17.6-63.6 0-17.6 17.6-17.6 46.1 0 63.6l148.5 148.5zM157.5 610.6c-17.6-17.6-46.1-17.6-63.6 0-17.6 17.6-17.6 46.1 0 63.6l148.5 148.5c17.6 17.6 46.1 17.6 63.6 0 17.6-17.6 17.6-46.1 0-63.6L157.5 610.6z" /></svg>