<?xml version="1.0" standalone="no"?><!DOCTYPE svg PUBLIC "-//W3C//DTD SVG 1.1//EN" "http://www.w3.org/Graphics/SVG/1.1/DTD/svg11.dtd"><svg class="icon" width="64px" height="64.00px" viewBox="0 0 1024 1024" version="1.1" xmlns="http://www.w3.org/2000/svg"><path fill="#474747" d="M652.6 469.1c-13.5-44-47.7-79.1-91.2-93.9 1.1-3.8 1.7-7.9 1.7-12v-67.3c0-23.6-19.1-42.7-42.7-42.7h-4.5c-23.6 0-42.7 19.1-42.7 42.7v67.3c0 3.6 0.4 7.1 1.3 10.4-43.6 13-78.6 46.2-94 88.8-3.9-1.2-8.1-1.8-12.4-1.8h-67.3c-23.6 0-42.7 19.1-42.7 42.7v4.5c0 23.6 19.1 42.7 42.7 42.7h67.3c3.1 0 6.2-0.3 9.1-1 12.4 44.7 46.1 80.7 89.3 96.5-0.7 3.1-1.1 6.4-1.1 9.7V723c0 23.6 19.1 42.7 42.7 42.7h4.5c23.6 0 42.7-19.1 42.7-42.7v-67.3c0-2.2-0.2-4.5-0.5-6.6 45.2-12.9 81.3-47.5 96.4-91.8 3 0.7 6.1 1 9.3 1h67.3c23.6 0 42.7-19.1 42.7-42.7v-4.5c0-23.6-19.1-42.7-42.7-42.7h-67.3c-2.7-0.1-5.4 0.2-7.9 0.7z m-137.3 95.5c-29.5 0-53.5-24-53.5-53.5s24-53.5 53.5-53.5 53.5 24 53.5 53.5-24 53.5-53.5 53.5zM322.7 317.9l-3.2 3.2c-16.7 16.7-16.7 43.8 0 60.4 16.7 16.7 43.8 16.7 60.4 0l3.2-3.2c16.7-16.7 16.7-43.8 0-60.4-16.6-16.7-43.7-16.7-60.4 0zM319.2 640.7c-16.7 16.7-16.7 43.8 0 60.4l3.2 3.2c16.7 16.7 43.8 16.7 60.4 0 16.7-16.7 16.7-43.8 0-60.4l-3.2-3.2c-16.6-16.7-43.7-16.7-60.4 0zM645.2 641l-3.2 3.2c-16.7 16.7-16.7 43.8 0 60.4 16.7 16.7 43.8 16.7 60.4 0l3.2-3.2c16.7-16.7 16.7-43.8 0-60.4-16.7-16.7-43.7-16.7-60.4 0zM642.3 318.2c-16.7 16.7-16.7 43.8 0 60.4l3.2 3.2c16.7 16.7 43.8 16.7 60.4 0 16.7-16.7 16.7-43.8 0-60.4l-3.2-3.2c-16.6-16.7-43.7-16.7-60.4 0zM943.1 372.5c-6.5-19.4-28.2-29.1-47-21-16.7 7.2-25.1 26-19.3 43.3 13.2 39.3 19.8 80.4 19.8 122.6 0 210.1-168.7 381.5-377.7 386.1-220.4 4.8-399.3-174.1-394.5-394.5 4.5-209 176-377.7 386.1-377.7 40.2 0 79.5 6.1 117.3 18.1 17.4 5.6 36.2-3 43.2-19.9 7.8-18.9-2.1-40.5-21.6-46.7-44.8-14.3-91.4-21.6-139-21.6-61.6 0-121.3 12.1-177.6 35.9-54.3 23-103.1 55.9-145 97.7-41.9 41.9-74.8 90.7-97.7 145-23.8 56.3-35.9 116-35.9 177.6S66.3 638.7 90.1 695c23 54.3 55.9 103.1 97.7 145 41.9 41.9 90.7 74.8 145 97.7 56.3 23.8 116 35.9 177.6 35.9 61.6 0 121.3-12.1 177.6-35.9 54.3-23 103.1-55.9 145-97.7 41.9-41.9 74.8-90.7 97.7-145 23.8-56.3 35.9-116 35.9-177.6 0-49.8-7.9-98.4-23.5-144.9zM773.215064 231.966274a41.8 41.8 0 1 0 81.36245-19.212278 41.8 41.8 0 1 0-81.36245 19.212278Z" /></svg>