<?xml version="1.0" standalone="no"?><!DOCTYPE svg PUBLIC "-//W3C//DTD SVG 1.1//EN" "http://www.w3.org/Graphics/SVG/1.1/DTD/svg11.dtd"><svg class="icon" width="200px" height="200.00px" viewBox="0 0 1024 1024" version="1.1" xmlns="http://www.w3.org/2000/svg"><path d="M678.4 734.6L563.8 774c-30.8 10.6-64.1 9.3-93.9-3.7l-95.6-41.5c-65.1-28.3-140.2-23.3-201 13.3L73.1 802.4l46.4 77.1 100.2-60.3c35.9-21.6 80.3-24.6 118.7-7.9l95.6 41.5c50.5 21.9 107 24.2 159.1 6.2l114.6-39.4c30.7-10.6 64-9.3 93.8 3.6l120 52 35.8-82.6-120-52c-50.4-21.8-106.9-23.9-158.9-6zM219.7 542.8c35.9-21.6 80.3-24.6 118.7-7.9l95.6 41.5c50.5 21.9 107 24.2 159.1 6.2l114.6-39.4c30.7-10.6 64-9.3 93.8 3.6l120 52 35.8-82.6-120-52c-50.5-21.9-106.9-24.1-158.9-6.2l-114.6 39.4c-30.8 10.6-64.1 9.3-93.9-3.7l-95.6-41.5c-65.1-28.3-140.2-23.3-201 13.3L73.1 526l46.4 77.1 100.2-60.3zM219.7 266.4c35.9-21.6 80.3-24.6 118.7-7.9L434 300c50.5 21.9 107 24.2 159.1 6.2l114.6-39.4c30.7-10.6 64-9.3 93.8 3.6l120 52 35.8-82.6-120-52c-50.5-21.9-106.9-24.1-158.9-6.2L563.8 221c-30.8 10.6-64.1 9.3-93.9-3.7L374.3 176c-65.1-28.3-140.2-23.3-201 13.3L73.1 249.6l46.4 77.1 100.2-60.3z" /></svg>