<?xml version="1.0" standalone="no"?><!DOCTYPE svg PUBLIC "-//W3C//DTD SVG 1.1//EN" "http://www.w3.org/Graphics/SVG/1.1/DTD/svg11.dtd"><svg class="icon" width="200px" height="200.00px" viewBox="0 0 1024 1024" version="1.1" xmlns="http://www.w3.org/2000/svg"><path d="M776.8 739.1l-155.4-31.4 14.9-73.5 136.9 27.6L938.5 612l21.6 71.8zM241.9 739.1L71.5 688.6l21.3-71.9 152.7 45.2 148.8-29.6 14.6 73.5zM776.8 956.7L511.4 903l-269.5 53.7-170.4-50.5 21.3-71.9 152.7 45.2 266.1-53 261.6 52.9 165.3-49.8 21.6 71.8zM515.8 771.3h-1.2C421 770.6 345 694 345.1 600.4c0.1-51 22.6-98.4 61.1-130.6V175.7c0-60.4 49.2-109.6 109.6-109.6 60.4 0 109.6 49.2 109.6 109.6v294.1c38.6 32.2 61.1 79.8 61.1 130.8 0 45.8-17.9 88.8-50.4 121.1-32.3 32-75 49.6-120.3 49.6z m-0.1-630.2c-19.1 0-34.6 15.5-34.6 34.6v333.4L464 520.2c-27.4 17.7-43.9 47.7-43.9 80.3-0.1 52.4 42.5 95.4 95 95.8h0.7c25.4 0 49.3-9.8 67.4-27.8 18.2-18.1 28.3-42.2 28.3-67.9 0-32.6-16.4-62.7-43.9-80.5L550.4 509V175.7c-0.1-19.1-15.6-34.6-34.7-34.6zM668 261.5h-48.9c-20.7 0-37.5-16.8-37.5-37.5s16.8-37.5 37.5-37.5H668c20.7 0 37.5 16.8 37.5 37.5s-16.8 37.5-37.5 37.5zM668 380.7h-48.9c-20.7 0-37.5-16.8-37.5-37.5s16.8-37.5 37.5-37.5H668c20.7 0 37.5 16.8 37.5 37.5s-16.8 37.5-37.5 37.5z" /></svg>