<?xml version="1.0" standalone="no"?><!DOCTYPE svg PUBLIC "-//W3C//DTD SVG 1.1//EN" "http://www.w3.org/Graphics/SVG/1.1/DTD/svg11.dtd"><svg class="icon" width="200px" height="200.00px" viewBox="0 0 1024 1024" version="1.1" xmlns="http://www.w3.org/2000/svg"><path d="M870.1 392.9c-41.4-59.8-82.2-107.7-83.9-109.7l-34.2-40-34.2 40c-1.7 2-42.5 49.9-83.9 109.7-59.9 86.7-89.1 151.7-89.1 198.8 0 114.2 92.9 207.2 207.2 207.2S959.2 706 959.2 591.8c0-47.2-29.2-112.2-89.1-198.9zM752 708.9c-64.6 0-117.2-52.6-117.2-117.2 0-9.8 5.2-49.4 72.7-147 15.6-22.5 31.3-43.5 44.5-60.6 13.2 17.1 28.9 38 44.5 60.6 67.4 97.7 72.7 137.2 72.7 147 0 64.7-52.6 117.2-117.2 117.2zM399.8 866.3c-132.3 0-239.9-107.6-239.9-239.9 0-31.4 17.4-109.4 134-278.1 39.2-56.8 78.8-107.9 105.9-141.6 26.9 33.6 66.3 84.4 105.4 141 12.2 17.6 23.2 34.2 33.3 49.8 16.6-28.1 34.7-56.1 52.9-83.1-4-5.9-8.1-11.9-12.2-17.9C507.5 192.8 437 110 434 106.5l-34.2-40-34.2 40c-3 3.5-73.5 86.3-145.3 190-42.6 61.5-76.6 117.6-101.2 166.7C86 529.5 69.9 582.8 69.9 626.4c0 44.5 8.7 87.7 25.9 128.4 16.6 39.3 40.4 74.6 70.7 104.9 30.3 30.3 65.6 54.1 104.8 70.7 40.7 17.2 83.9 25.9 128.4 25.9s87.7-8.7 128.4-25.9c39.3-16.6 74.6-40.4 104.9-70.7 1.2-1.2 2.5-2.5 3.7-3.8-29.3-11.7-56.1-28.3-79.5-48.7-42.1 36.8-97.2 59.1-157.4 59.1zM296.3 652.4c-10.1 0-20.2-4.8-30-14.1l-4.1-3.9-23.6 32.6 3.1 3c16.2 15.9 36.5 24 60.4 24 31.7 0 63.8-20.9 63.8-60.8 0-17.2-5.8-31.4-16.7-41-9.9-8.6-23.4-13.2-39-13.2-4.1 0-7.7 0.4-11.2 1.2l1.4-15.5h58.4v-42.6H257.5l-4.5 88.3 22.2 14.5 2.7-1.7c9-5.8 12.6-7.3 20.3-7.3 12 0 18.8 6.7 18.8 18.4-0.1 12-7 18.1-20.7 18.1zM376.8 605.8c0 27.1 5.8 49.6 16.9 64.8 11 15.2 26.9 23.3 45.9 23.3 18.9 0 34.7-8.1 45.7-23.3 11-15.3 16.8-37.7 16.8-64.8 0-54.3-23.4-86.8-62.5-86.8-39.3 0-62.8 32.4-62.8 86.8z m62.8 47.9c-4 0-16 0-16-47.9 0-46.6 11.2-46.6 16-46.6 4.7 0 15.8 0 15.8 46.6-0.1 47.9-11.9 47.9-15.8 47.9z" /></svg>