<?xml version="1.0" standalone="no"?><!DOCTYPE svg PUBLIC "-//W3C//DTD SVG 1.1//EN" "http://www.w3.org/Graphics/SVG/1.1/DTD/svg11.dtd"><svg class="icon" width="64px" height="64.00px" viewBox="0 0 1024 1024" version="1.1" xmlns="http://www.w3.org/2000/svg"><path fill="#474747" d="M917.6 342c-22.4-52.9-54.4-100.5-95.2-141.3-40.8-40.8-88.3-72.8-141.3-95.2-54.8-23.2-113-34.9-173-34.9s-118.2 11.8-173 34.9c-52.9 22.4-100.5 54.4-141.3 95.2C153 241.6 121 289.1 98.6 342c-23.2 54.8-34.9 113-34.9 173s11.8 118.2 34.9 173c22.4 53 54.4 100.6 95.2 141.4 40.8 40.8 88.3 72.8 141.3 95.2 54.8 23.2 113 34.9 173 34.9s118.2-11.8 173-34.9c52.9-22.4 100.5-54.4 141.3-95.2 40.8-40.8 72.8-88.3 95.2-141.3 23.2-54.8 34.9-113 34.9-173S940.8 396.9 917.6 342zM557 866.2v-42.9c0-24.9-20.1-45-45-45s-45 20.1-45 45v43.9c-98.2-11.4-184.2-63.1-241.2-138l39.1-22.6c21.5-12.4 28.9-39.9 16.5-61.5-12.4-21.5-39.9-28.9-61.5-16.5l-39.1 22.5c-17.5-41.9-27.2-87.9-27.2-136.1 0-50.1 10.5-97.8 29.3-141.1l36.9 21.3c21.5 12.4 49 5.1 61.5-16.5 12.4-21.5 5.1-49-16.5-61.5L229 296.5C286 224 370.7 174.1 467 163v37.7c0 24.9 20.1 45 45 45s45-20.1 45-45V164c94.4 13.1 177.1 63.5 232.6 135.8l-30.4 17.6c-21.5 12.4-28.9 39.9-16.5 61.5 12.4 21.5 39.9 28.9 61.5 16.5l30.7-17.7c17.9 42.3 27.8 88.8 27.8 137.5 0 46.8-9.1 91.6-25.7 132.5l-32.8-18.9c-21.5-12.4-49-5.1-61.5 16.5-12.4 21.5-5.1 49 16.5 61.5l33.7 19.5C737.3 800.7 653.3 852.9 557 866.2zM552.5 351.1L518.6 310l-34.8 40.3c-1.1 1.3-27.5 32-54.2 70.1-53.4 76.3-59.6 113-59.6 134 0 80.3 65.3 145.6 145.6 145.6s145.6-65.3 145.6-145.6c0-20.8-5.9-57.2-56.8-133.3-25.5-38.1-50.8-68.7-51.9-70z m-36.9 259c-30.7 0-55.6-25-55.6-55.6 0-0.2 0.5-21.1 42.9-81.8 4.8-6.8 9.6-13.4 14.2-19.6 4.1 5.8 8.4 11.9 12.6 18.3 41.1 61.4 41.6 82.3 41.6 83.2 0 30.6-25 55.5-55.7 55.5z" /></svg>